<svg xmlns="http://www.w3.org/2000/svg" width="60" height="60" fill="none"><path fill="#000" d="M52.982 23.626V21.71h-4.82L45.69 11.484A1.917 1.917 0 0 0 43.83 10H16.224c-.874 0-1.637.601-1.849 1.465L11.82 21.71H7v1.916c0 .639.303 1.23.818 1.596l1.26.902C7.91 27.58 7.01 29.71 7.01 32.838v16.209c0 1.08.855 1.953 1.913 1.953h3.918c1.057 0 1.912-.873 1.912-1.953v-4.01H45.34v4.01c0 1.08.855 1.953 1.912 1.953h3.826c1.058 0 1.913-.873 1.913-1.953V32.838c0-3.117-.901-5.259-2.07-6.714l1.26-.902A1.95 1.95 0 0 0 53 23.626h-.018Zm-6.695.037-32.356-.037 2.725-11.673h26.909l2.722 11.71Zm-29.63 11.72H10.77v-2.986l5.885.084v2.902Zm21.031 2.93H23.351V36.36h14.337v1.953Zm0-3.906H23.351v-1.954h14.337v1.954Zm11.376.976h-5.637v-2.93h5.637v2.93Z"/></svg>