<svg xmlns="http://www.w3.org/2000/svg" width="60" height="60" fill="none"><path fill="#000" d="M9.926 31.848v4.054H6.584v11.674h3.342v3.297h2.985c0 1.455.52 2.703 1.56 3.743s2.287 1.56 3.742 1.56c1.426 0 2.659-.52 3.698-1.56 1.04-1.04 1.56-2.288 1.56-3.743h16.441c0 1.455.52 2.703 1.56 3.743s2.287 1.56 3.742 1.56c1.456 0 2.689-.52 3.699-1.56 1.04-1.04 1.559-2.288 1.559-3.743h5.124v-8.644c0-1.871-1.173-2.807-3.52-2.807H40.358l-5.213-7.574H9.926Zm16.753 1.826h6.906l3.654 5.748h-10.56v-5.748Zm-2.317 0v5.748h-8.911v-5.748h8.911Zm-8.11 19.115a3.352 3.352 0 0 1-.49-.58 2.792 2.792 0 0 1-.311-1.336c0-.772.267-1.426.802-1.96.535-.535 1.188-.803 1.96-.803.773 0 1.411.268 1.916.803.565.534.847 1.188.847 1.96 0 .502-.119.948-.357 1.337-.129.21-.292.402-.49.579-.505.535-1.143.802-1.916.802-.772 0-1.425-.267-1.96-.802Zm31.368-.58c-.129.21-.292.403-.49.58-.505.535-1.143.802-1.916.802-.772 0-1.41-.267-1.916-.802a3.352 3.352 0 0 1-.49-.58 2.792 2.792 0 0 1-.312-1.336c0-.772.268-1.426.802-1.96.505-.535 1.144-.803 1.916-.803.773 0 1.411.268 1.916.803.565.534.847 1.188.847 1.96 0 .502-.119.948-.357 1.337ZM35.145 30.066c.29-.002.557.057.802.178.278.157.5.35.668.58l4.678 6.817h9.268V27.17L30.377 13.712l-20.228 13.5v2.852h24.996Zm21.565-8.51-8.02-5.302V8.01h-5.347v4.678L30.288 4 4 21.555v7.708l26.288-17.555 26.333 17.555.089-7.708Z"/></svg>